<svg xmlns="http://www.w3.org/2000/svg" width="20" height="20"><path fill="#1F1F1F" d="m.582 10.457-.061.091c-.523.815-.654 1.565-.336 2.543.386 1.186 1.004 1.648 2.35 2.073 1.481.467 1.834.61 2.602 1.164q.464.334.857.75l1.09-.363a7.132 7.132 0 0 0-1.325-1.239c-.892-.644-1.312-.813-2.904-1.315-1.053-.332-1.403-.594-1.662-1.393-.18-.551-.158-.94.063-1.38zm1.276-1.841q.27-.496.447-1.033c.27-.826.316-1.418.28-2.53-.028-.851-.016-1.176.11-1.615.167-.59.53-1.082 1.144-1.525.69-.498 1.337-.676 2.042-.595q.315.038.619.127l-.688.924-.052-.006c-.437-.05-.82.056-1.3.402-.759.548-.861.907-.818 2.254.04 1.224-.014 1.92-.331 2.889a7 7 0 0 1-.778 1.64zm5.496 10.228C8.005 19.646 8.662 20 9.748 20c1.186.002 1.86-.417 2.571-1.383.09-.12.477-.675.59-.827.241-.326.466-.594.723-.85q.337-.334.723-.612c.354-.256.625-.425.958-.577l.006-1.141c-.623.232-1.013.452-1.586.866a7 7 0 0 0-.85.72 8 8 0 0 0-.827.971c-.123.166-.511.72-.59.828-.53.717-.91.954-1.716.953-.585-.001-.947-.126-1.303-.467zm10.08-3.822c1.018-.382 1.532-.872 1.879-1.93.335-1.023.199-1.788-.352-2.621-.153-.232-.773-1.041-.888-1.204a6.1 6.1 0 0 1-.862-1.684 5.8 5.8 0 0 1-.254-1.098L15.86 6.14c.04.625.137 1.138.343 1.769.24.732.561 1.338 1.002 1.963.135.192.743.983.87 1.177.382.578.46 1.016.23 1.718-.186.567-.408.87-.866 1.108zM16.89 4.256c-.057-1.128-.34-1.7-1.231-2.343-.608-.439-1.194-.62-1.827-.585a4 4 0 0 0-.914.173c-.13.037-.261.08-.439.14l-.444.149c-.857.283-1.491.412-2.287.412-.393 0-.745-.033-1.103-.101l-.687.922a6.8 6.8 0 0 0 1.79.231c.928 0 1.665-.15 2.621-.465 1.238-.41 1.179-.392 1.52-.41.385-.021.733.086 1.147.385.47.34.679.616.76 1.146z"/><path fill="#F5A623" d="m18.925 9.543.062-.09c.523-.815.653-1.566.336-2.544-.386-1.185-1.004-1.648-2.35-2.072-1.482-.468-1.834-.61-2.602-1.164a6 6 0 0 1-.857-.75l-1.09.362q.232.282.495.539c.253.249.527.481.83.7.892.644 1.313.814 2.904 1.316 1.053.332 1.403.594 1.663 1.393.179.55.157.94-.064 1.38zm-1.275 1.842q-.271.496-.447 1.033c-.27.826-.316 1.417-.28 2.53.028.85.016 1.175-.11 1.615-.168.59-.53 1.081-1.144 1.524-.69.498-1.338.677-2.043.596a4 4 0 0 1-.618-.128l.688-.924.052.006c.436.05.82-.055 1.3-.401.759-.549.861-.908.817-2.254-.04-1.225.015-1.921.332-2.89.188-.578.45-1.129.777-1.64zm-5.496-10.23C11.502.356 10.846.003 9.759 0 8.573-.002 7.9.417 7.19 1.383c-.09.12-.478.675-.59.827a7 7 0 0 1-.723.85 6 6 0 0 1-.723.612 5.3 5.3 0 0 1-.958.577L4.189 5.39c.623-.231 1.012-.452 1.586-.866q.454-.326.85-.72c.298-.297.556-.605.827-.971.123-.166.511-.72.59-.828.529-.717.91-.954 1.716-.953.585.001.946.126 1.302.467zM2.074 4.979C1.056 5.361.54 5.85.195 6.908-.14 7.931-.004 8.697.546 9.53c.153.231.774 1.04.889 1.203.384.545.657 1.06.862 1.685.127.39.207.73.254 1.097l1.095.347a6.7 6.7 0 0 0-.343-1.77 7.1 7.1 0 0 0-1.002-1.963c-.135-.192-.742-.983-.87-1.177-.382-.578-.46-1.015-.23-1.718.186-.567.408-.87.867-1.107zm.543 10.766c.057 1.128.34 1.7 1.23 2.343.608.439 1.195.62 1.828.585a4 4 0 0 0 .914-.172q.22-.066.438-.14l.444-.15c.858-.283 1.492-.412 2.288-.412.393 0 .745.033 1.103.102l.687-.923a6.8 6.8 0 0 0-1.79-.231c-.928 0-1.665.15-2.621.466-1.238.408-1.179.39-1.52.41-.386.02-.733-.087-1.148-.386-.47-.34-.678-.616-.76-1.146z"/></svg>