<svg xmlns="http://www.w3.org/2000/svg" width="15" height="20"><path d="M11.272 11.747c-1.407-.31-3.152-.31-5.178-.31H2.998V8.563h3.096c2.026 0 3.799 0 5.178-.281 2.335-.564 2.814-1.916 2.814-2.986s-.45-2.45-2.786-3.014C9.865 2 8.12 2 6.065 2H1v16h5.094c2.026 0 3.799 0 5.178-.282 2.335-.563 2.814-1.915 2.814-2.986 0-1.07-.479-2.45-2.814-2.985m.816-6.48c0 1.127-1.773 1.296-5.994 1.296H2.998V4.028h3.096c4.22 0 5.994.17 5.994 1.268zM6.065 16H2.97v-2.535h3.095c4.222 0 5.995.197 5.995 1.296S10.287 16 6.065 16"/></svg>
